<svg width="64" height="64" viewBox="0 0 64 64" fill="none" xmlns="http://www.w3.org/2000/svg">
<g clip-path="url(#clip0_3_68)">
<path d="M32 40C32 42.1217 32.8429 44.1566 34.3431 45.6569C35.8434 47.1571 37.8783 48 40 48C42.1217 48 44.1566 47.1571 45.6569 45.6569C47.1571 44.1566 48 42.1217 48 40C48 37.8783 47.1571 35.8434 45.6569 34.3431C44.1566 32.8429 42.1217 32 40 32C37.8783 32 35.8434 32.8429 34.3431 34.3431C32.8429 35.8434 32 37.8783 32 40Z" stroke="#4A44BB" stroke-width="4" stroke-linecap="round" stroke-linejoin="round"/>
<path d="M34.6666 46.6667V58.6667L40 54.6667L45.3333 58.6667V46.6667" stroke="#4A44BB" stroke-width="4" stroke-linecap="round" stroke-linejoin="round"/>
<path d="M26.6667 50.6667H13.3333C11.9188 50.6667 10.5623 50.1048 9.5621 49.1046C8.5619 48.1044 8 46.7478 8 45.3333V18.6667C8 15.7333 10.4 13.3333 13.3333 13.3333H50.6667C52.0812 13.3333 53.4377 13.8952 54.4379 14.8954C55.4381 15.8956 56 17.2522 56 18.6667V45.3333C55.999 46.2686 55.7522 47.1872 55.2841 47.9969C54.8161 48.8066 54.1433 49.479 53.3333 49.9467" stroke="#4A44BB" stroke-width="4" stroke-linecap="round" stroke-linejoin="round"/>
<path d="M16 24H48" stroke="#4A44BB" stroke-width="4" stroke-linecap="round" stroke-linejoin="round"/>
<path d="M16 32H24" stroke="#4A44BB" stroke-width="4" stroke-linecap="round" stroke-linejoin="round"/>
<path d="M16 40H21.3333" stroke="#4A44BB" stroke-width="4" stroke-linecap="round" stroke-linejoin="round"/>
</g>
<defs>
<clipPath id="clip0_3_68">
<rect width="64" height="64" fill="white"/>
</clipPath>
</defs>
</svg>
