<svg width="26" height="26" viewBox="0 0 26 26" fill="none" xmlns="http://www.w3.org/2000/svg">
<mask id="mask0_209_1785" style="mask-type:alpha" maskUnits="userSpaceOnUse" x="0" y="0" width="26" height="26">
<rect width="26" height="26" fill="#D9D9D9"/>
</mask>
<g mask="url(#mask0_209_1785)">
<path d="M21.6125 22.75C19.2833 22.75 17.0128 22.2309 14.801 21.1927C12.5892 20.1545 10.6302 18.7823 8.92396 17.076C7.21771 15.3698 5.84549 13.4108 4.80729 11.199C3.7691 8.98715 3.25 6.71667 3.25 4.3875C3.25 4.0625 3.35833 3.79167 3.575 3.575C3.79167 3.35833 4.0625 3.25 4.3875 3.25H8.775C9.02778 3.25 9.25347 3.33125 9.45208 3.49375C9.65069 3.65625 9.76806 3.86389 9.80417 4.11667L10.5083 7.90833C10.5444 8.16111 10.5399 8.39132 10.4948 8.59896C10.4497 8.8066 10.3458 8.99167 10.1833 9.15417L7.58333 11.8083C8.34167 13.1083 9.28958 14.3271 10.4271 15.4646C11.5646 16.6021 12.8194 17.5861 14.1917 18.4167L16.7375 15.8708C16.9 15.7083 17.1122 15.5865 17.374 15.5052C17.6358 15.424 17.8931 15.4014 18.1458 15.4375L21.8833 16.1958C22.1361 16.25 22.3438 16.3719 22.5063 16.5615C22.6688 16.751 22.75 16.9722 22.75 17.225V21.6125C22.75 21.9375 22.6417 22.2083 22.425 22.425C22.2083 22.6417 21.9375 22.75 21.6125 22.75Z" fill="white"/>
</g>
</svg>
