<svg width="26" height="26" viewBox="0 0 26 26" fill="none" xmlns="http://www.w3.org/2000/svg">
<g clip-path="url(#clip0_209_1796)">
<path d="M13 2.34299C16.4732 2.34299 16.8809 2.35848 18.2537 2.4204C19.5232 2.47717 20.2096 2.68876 20.6689 2.86939C21.2779 3.10679 21.7114 3.38547 22.1656 3.83962C22.6197 4.29377 22.9035 4.72727 23.1358 5.33624C23.3112 5.79555 23.528 6.48194 23.5848 7.75149C23.6467 9.12425 23.6622 9.53196 23.6622 13.0052C23.6622 16.4784 23.6467 16.8861 23.5848 18.2588C23.528 19.5284 23.3164 20.2148 23.1358 20.6741C22.8984 21.283 22.6197 21.7166 22.1656 22.1707C21.7114 22.6248 21.2779 22.9087 20.6689 23.1409C20.2096 23.3164 19.5232 23.5331 18.2537 23.5899C16.8809 23.6518 16.4732 23.6673 13 23.6673C9.5268 23.6673 9.1191 23.6518 7.74633 23.5899C6.47678 23.5331 5.7904 23.3216 5.33109 23.1409C4.72212 22.9035 4.28861 22.6248 3.83446 22.1707C3.38031 21.7166 3.09647 21.283 2.86423 20.6741C2.68877 20.2148 2.47201 19.5284 2.41525 18.2588C2.35332 16.8861 2.33783 16.4784 2.33783 13.0052C2.33783 9.53196 2.35332 9.12425 2.41525 7.75149C2.47201 6.48194 2.68361 5.79555 2.86423 5.33624C3.10163 4.72727 3.38031 4.29377 3.83446 3.83962C4.28861 3.38547 4.72212 3.10163 5.33109 2.86939C5.7904 2.69393 6.47678 2.47717 7.74633 2.4204C9.1191 2.35331 9.53196 2.34299 13 2.34299ZM13 0C9.47003 0 9.02621 0.0154823 7.63796 0.0774117C6.25487 0.139341 5.31044 0.361254 4.48472 0.681223C3.62803 1.01151 2.90552 1.4605 2.18301 2.18301C1.4605 2.90552 1.01667 3.63319 0.681223 4.48472C0.361255 5.31044 0.139341 6.25486 0.0774117 7.64311C0.0154823 9.0262 0 9.47003 0 13C0 16.53 0.0154823 16.9738 0.0774117 18.362C0.139341 19.7451 0.361255 20.6896 0.681223 21.5204C1.01151 22.3771 1.4605 23.0996 2.18301 23.8222C2.90552 24.5447 3.63319 24.9885 4.48472 25.3239C5.31044 25.6439 6.25487 25.8658 7.64312 25.9277C9.03137 25.9897 9.47003 26.0052 13.0052 26.0052C16.5403 26.0052 16.979 25.9897 18.3672 25.9277C19.7503 25.8658 20.6947 25.6439 21.5256 25.3239C22.3823 24.9936 23.1048 24.5447 23.8273 23.8222C24.5498 23.0996 24.9937 22.372 25.3291 21.5204C25.6491 20.6947 25.871 19.7503 25.9329 18.362C25.9949 16.9738 26.0103 16.5351 26.0103 13C26.0103 9.46487 25.9949 9.0262 25.9329 7.63795C25.871 6.25486 25.6491 5.31044 25.3291 4.47956C24.9988 3.62287 24.5498 2.90036 23.8273 2.17785C23.1048 1.45534 22.3771 1.01151 21.5256 0.676062C20.6999 0.356094 19.7555 0.13418 18.3672 0.0722509C16.9738 0.0154823 16.53 0 13 0Z" fill="white"/>
<path d="M13 2.34299C16.4732 2.34299 16.8809 2.35848 18.2537 2.4204C19.5232 2.47717 20.2096 2.68876 20.6689 2.86939C21.2779 3.10679 21.7114 3.38547 22.1656 3.83962C22.6197 4.29377 22.9035 4.72727 23.1358 5.33624C23.3112 5.79555 23.528 6.48194 23.5848 7.75149C23.6467 9.12425 23.6622 9.53196 23.6622 13.0052C23.6622 16.4784 23.6467 16.8861 23.5848 18.2588C23.528 19.5284 23.3164 20.2148 23.1358 20.6741C22.8984 21.283 22.6197 21.7166 22.1656 22.1707C21.7114 22.6248 21.2779 22.9087 20.6689 23.1409C20.2096 23.3164 19.5232 23.5331 18.2537 23.5899C16.8809 23.6518 16.4732 23.6673 13 23.6673C9.5268 23.6673 9.1191 23.6518 7.74633 23.5899C6.47678 23.5331 5.7904 23.3216 5.33109 23.1409C4.72212 22.9035 4.28861 22.6248 3.83446 22.1707C3.38031 21.7166 3.09647 21.283 2.86423 20.6741C2.68877 20.2148 2.47201 19.5284 2.41525 18.2588C2.35332 16.8861 2.33783 16.4784 2.33783 13.0052C2.33783 9.53196 2.35332 9.12425 2.41525 7.75149C2.47201 6.48194 2.68361 5.79555 2.86423 5.33624C3.10163 4.72727 3.38031 4.29377 3.83446 3.83962C4.28861 3.38547 4.72212 3.10163 5.33109 2.86939C5.7904 2.69393 6.47678 2.47717 7.74633 2.4204C9.1191 2.35331 9.53196 2.34299 13 2.34299Z" fill="white"/>
<path d="M12.9999 6.32715C9.31515 6.32715 6.3219 9.31524 6.3219 13.0052C6.3219 16.6951 9.30999 19.6832 12.9999 19.6832C16.6899 19.6832 19.678 16.6951 19.678 13.0052C19.678 9.31524 16.6899 6.32715 12.9999 6.32715ZM12.9999 17.3351C10.6053 17.3351 8.66489 15.3946 8.66489 13C8.66489 10.6054 10.6053 8.66498 12.9999 8.66498C15.3945 8.66498 17.335 10.6054 17.335 13C17.335 15.3946 15.3945 17.3351 12.9999 17.3351Z" fill="#25225E"/>
<path d="M19.9412 7.61711C20.802 7.61711 21.4998 6.91932 21.4998 6.05856C21.4998 5.19779 20.802 4.5 19.9412 4.5C19.0805 4.5 18.3827 5.19779 18.3827 6.05856C18.3827 6.91932 19.0805 7.61711 19.9412 7.61711Z" fill="#25225E"/>
</g>
<defs>
<clipPath id="clip0_209_1796">
<rect width="26" height="26" fill="white"/>
</clipPath>
</defs>
</svg>
