<svg width="26" height="26" viewBox="0 0 26 26" fill="none" xmlns="http://www.w3.org/2000/svg">
<mask id="mask0_209_1780" style="mask-type:alpha" maskUnits="userSpaceOnUse" x="0" y="0" width="26" height="26">
<rect width="26" height="26" fill="#D9D9D9"/>
</mask>
<g mask="url(#mask0_209_1780)">
<path d="M13 12.9998C13.5959 12.9998 14.1059 12.7877 14.5302 12.3634C14.9546 11.9391 15.1667 11.429 15.1667 10.8332C15.1667 10.2373 14.9546 9.72727 14.5302 9.30296C14.1059 8.87866 13.5959 8.6665 13 8.6665C12.4042 8.6665 11.8941 8.87866 11.4698 9.30296C11.0455 9.72727 10.8334 10.2373 10.8334 10.8332C10.8334 11.429 11.0455 11.9391 11.4698 12.3634C11.8941 12.7877 12.4042 12.9998 13 12.9998ZM13 23.8332C10.0931 21.3596 7.92192 19.062 6.4865 16.9405C5.05108 14.8189 4.33337 12.8554 4.33337 11.0498C4.33337 8.3415 5.20455 6.18386 6.94692 4.57692C8.68928 2.96998 10.707 2.1665 13 2.1665C15.2931 2.1665 17.3108 2.96998 19.0532 4.57692C20.7955 6.18386 21.6667 8.3415 21.6667 11.0498C21.6667 12.8554 20.949 14.8189 19.5136 16.9405C18.0782 19.062 15.907 21.3596 13 23.8332Z" fill="white"/>
</g>
</svg>
