<svg width="26" height="26" viewBox="0 0 26 26" fill="none" xmlns="http://www.w3.org/2000/svg">
<mask id="mask0_209_1790" style="mask-type:alpha" maskUnits="userSpaceOnUse" x="0" y="0" width="26" height="26">
<rect width="26" height="26" fill="#D9D9D9"/>
</mask>
<g mask="url(#mask0_209_1790)">
<path d="M4.33329 21.6668C3.73746 21.6668 3.22739 21.4547 2.80308 21.0304C2.37878 20.6061 2.16663 20.096 2.16663 19.5002V6.50016C2.16663 5.90433 2.37878 5.39426 2.80308 4.96995C3.22739 4.54565 3.73746 4.3335 4.33329 4.3335H21.6666C22.2625 4.3335 22.7725 4.54565 23.1968 4.96995C23.6211 5.39426 23.8333 5.90433 23.8333 6.50016V19.5002C23.8333 20.096 23.6211 20.6061 23.1968 21.0304C22.7725 21.4547 22.2625 21.6668 21.6666 21.6668H4.33329ZM13 14.0835L21.6666 8.66683V6.50016L13 11.9168L4.33329 6.50016V8.66683L13 14.0835Z" fill="white"/>
</g>
</svg>
