<svg width="26" height="26" viewBox="0 0 26 26" fill="none" xmlns="http://www.w3.org/2000/svg">
<path fill-rule="evenodd" clip-rule="evenodd" d="M2.20684 12.2346C8.92512 9.30751 13.405 7.37783 15.6466 6.4455C22.0466 3.78351 23.3764 3.3211 24.2432 3.30583C24.4339 3.30247 24.8601 3.34972 25.1363 3.57376C25.3694 3.76294 25.4336 4.0185 25.4642 4.19787C25.4949 4.37723 25.5332 4.78583 25.5028 5.1051C25.156 8.74915 23.6553 17.5923 22.8918 21.6737C22.5688 23.4007 21.9327 23.9798 21.3169 24.0364C19.9786 24.1596 18.9623 23.152 17.6661 22.3023C15.6378 20.9727 14.4919 20.1451 12.5231 18.8476C10.2477 17.3482 11.7227 16.5241 13.0195 15.1773C13.3588 14.8248 19.2554 9.46145 19.3695 8.9749C19.3838 8.91405 19.3971 8.68723 19.2623 8.56746C19.1276 8.44769 18.9287 8.48864 18.7852 8.52122C18.5817 8.56739 15.3415 10.7091 9.06436 14.9463C8.14462 15.5779 7.31155 15.8856 6.56515 15.8694C5.7423 15.8517 4.15947 15.4042 2.9828 15.0217C1.53956 14.5526 0.392509 14.3045 0.492391 13.5078C0.544416 13.0928 1.1159 12.6684 2.20684 12.2346Z" fill="white"/>
</svg>
