<svg width="50" height="50" viewBox="0 0 50 50" fill="none" xmlns="http://www.w3.org/2000/svg">
<g clip-path="url(#clip0_221_7729)">
<path d="M49.6514 37.6676L35.7574 23.7737L44.3563 15.1748C46.445 13.0861 46.445 9.68735 44.3563 7.59858L42.4048 5.64702C40.3158 3.55835 36.9174 3.55835 34.8285 5.64702L26.2296 14.2459L12.3326 0.348877C11.8676 -0.115967 11.1141 -0.115967 10.6489 0.348877L0.348633 10.6492C-0.116211 11.114 -0.116211 11.8678 0.348633 12.3329L14.2458 26.2299L7.15684 33.3189C6.99365 33.4701 6.87168 33.665 6.81318 33.8875L4.0125 44.5303C3.90479 44.9397 4.02266 45.3756 4.32197 45.675C4.54814 45.9012 4.85205 46.0238 5.16387 46.0238C5.26484 46.0238 5.3665 46.0109 5.4667 45.9846L16.0167 43.2083C16.2559 43.1662 16.4783 43.0528 16.6525 42.8787L23.7736 35.7576L37.6675 49.6515C37.9 49.884 38.2046 50.0002 38.5093 50.0002C38.814 50.0002 39.1186 49.884 39.3511 49.6515L49.6513 39.3513C50.1163 38.8864 50.1163 38.1326 49.6514 37.6676ZM36.5124 7.33062C37.6726 6.17026 39.5608 6.17026 40.7213 7.33071L42.6729 9.28218C43.8332 10.4426 43.8332 12.3307 42.6729 13.4911L41.4031 14.7608L35.2427 8.60034L36.5124 7.33062ZM33.5589 10.2841L39.7193 16.4446L38.2337 17.9303L32.0732 11.7699L33.5589 10.2841ZM2.87412 11.491L11.4908 2.87427L14.6404 6.02388L12.8676 7.79673C12.4027 8.26157 12.4027 9.01538 12.8676 9.48042C13.1001 9.71294 13.4047 9.82915 13.7094 9.82915C14.0141 9.82915 14.3187 9.71294 14.5512 9.48042L16.324 7.70757L18.602 9.9855L15.0858 13.5016C14.621 13.9665 14.621 14.7203 15.0858 15.1853C15.3184 15.4178 15.6229 15.534 15.9276 15.534C16.2323 15.534 16.5369 15.4178 16.7694 15.1853L20.2856 11.6691L24.5461 15.9295L15.9294 24.5462L2.87412 11.491ZM30.3895 13.4534L32.5883 15.6522L11.849 36.3915L9.65029 34.1926L30.3895 13.4534ZM6.83437 43.1626L8.58828 36.498L13.4991 41.4088L6.83437 43.1626ZM15.8106 40.3533L13.5327 38.0753L34.272 17.3361L36.5501 19.614L15.8106 40.3533ZM38.5093 47.1261L25.4571 34.0741L34.0738 25.4574L38.4103 29.7938L36.6374 31.5667C36.1726 32.0315 36.1726 32.7853 36.6374 33.2503C36.8699 33.4829 37.1745 33.5991 37.4792 33.5991C37.7839 33.5991 38.0885 33.4829 38.321 33.2503L40.0938 31.4775L42.3718 33.7555L38.8557 37.2714C38.3908 37.7363 38.3908 38.4901 38.8557 38.955C39.0882 39.1875 39.3928 39.3038 39.6975 39.3038C40.0022 39.3038 40.3067 39.1875 40.5393 38.955L44.0554 35.4391L47.1257 38.5094L38.5093 47.1261Z" fill="#5D55EA"/>
</g>
<defs>
<clipPath id="clip0_221_7729">
<rect width="50" height="50" fill="white"/>
</clipPath>
</defs>
</svg>
