<svg width="50" height="50" viewBox="0 0 50 50" fill="none" xmlns="http://www.w3.org/2000/svg">
<path d="M44.9865 8.76377C44.9108 7.87539 44.1275 7.21592 43.2412 7.29219C36.7528 7.84414 35.8531 6.4126 30.7823 2.725C28.5994 1.1374 26.6749 1.27539 25.4448 1.671C24.9912 1.81689 24.5598 2.02021 24.1501 2.26719L22.474 0.882715C21.785 0.313574 20.9132 0 20.0194 0C19.1254 0 18.2537 0.313574 17.5646 0.882715L6.40708 10.0992C5.51763 10.834 5.00757 11.9172 5.00757 13.071V46.1456C5.00757 48.271 6.73667 50 8.86196 50H31.1767C33.302 50 35.0311 48.2709 35.0311 46.1456V13.0709C35.0311 11.9172 34.521 10.834 33.6313 10.0991L27.0208 4.63867C27.4853 4.62275 28.0959 4.76318 28.8833 5.33584C33.9581 9.02705 35.7038 11.1739 43.5148 10.509C44.4032 10.4334 45.062 9.65205 44.9865 8.76377ZM22.1886 11.0374C22.1886 12.2336 21.2154 13.2067 20.0193 13.2067C18.8231 13.2067 17.85 12.2335 17.85 11.0374C17.85 10.1984 18.3294 9.4708 19.0281 9.11006C18.7281 9.82207 18.5472 10.3476 18.4869 10.5299C18.2066 11.3763 18.6653 12.2896 19.5117 12.5698C20.3577 12.8501 21.2712 12.3915 21.5516 11.545C21.656 11.2299 21.8247 10.7849 22.0466 10.2722C22.1369 10.5105 22.1886 10.7678 22.1886 11.0374ZM31.5751 12.5884C31.7198 12.7076 31.8027 12.8835 31.8027 13.0708V46.1455C31.8027 46.4907 31.5219 46.7715 31.1767 46.7715H8.86196C8.51675 46.7715 8.23599 46.4907 8.23599 46.1455V13.0709C8.23599 12.8835 8.3188 12.7075 8.46323 12.5883L19.6207 3.37188C19.7641 3.25342 19.9166 3.22852 20.0194 3.22852C20.1221 3.22852 20.2746 3.25342 20.418 3.37188L21.7282 4.4541C21.4017 4.85615 21.0998 5.27598 20.8221 5.69961C20.5602 5.66035 20.2921 5.63965 20.0194 5.63965C17.043 5.63965 14.6216 8.06113 14.6216 11.0374C14.6216 14.0137 17.0431 16.4352 20.0194 16.4352C22.9957 16.4352 25.4171 14.0137 25.4171 11.0374C25.4171 9.50674 24.7757 8.12402 23.7488 7.14072C23.8993 6.92275 24.0553 6.71143 24.2163 6.50947L31.5751 12.5884Z" fill="#5D55EA"/>
<path d="M24.3656 21.9424C23.951 21.9424 23.5825 22.1266 23.3982 22.5182L15.3146 39.1229C15.2454 39.2611 15.1993 39.4224 15.1993 39.5604C15.1993 40.1362 15.706 40.7811 16.489 40.7811C16.9265 40.7811 17.3641 40.5508 17.5253 40.2053L25.6321 23.6004C25.7011 23.4622 25.724 23.301 25.724 23.1629C25.7243 22.426 25.0104 21.9424 24.3656 21.9424Z" fill="#5D55EA"/>
<path d="M15.1303 22.8867C13.1728 22.8867 11.6758 23.7159 11.6758 25.9958V29.2661C11.6758 31.5462 13.1728 32.3752 15.1303 32.3752C17.0648 32.3751 18.5849 31.546 18.5849 29.2661V25.9958C18.585 23.7158 17.0648 22.8867 15.1303 22.8867ZM16.2819 29.2662C16.2819 30.0263 15.8442 30.3717 15.1303 30.3717C14.4164 30.3717 14.0019 30.0263 14.0019 29.2662V25.9959C14.0019 25.2359 14.4163 24.8905 15.1303 24.8905C15.8442 24.8905 16.2819 25.2359 16.2819 25.9959V29.2662Z" fill="#5D55EA"/>
<path d="M25.7013 30.3022C23.7437 30.3022 22.2468 31.1314 22.2468 33.4113V36.6816C22.2468 38.9617 23.7437 39.7908 25.7013 39.7908C27.6359 39.7908 29.1558 38.9617 29.1558 36.6816V33.4113C29.1558 31.1313 27.6359 30.3022 25.7013 30.3022ZM26.8528 36.6817C26.8528 37.4417 26.4151 37.7871 25.7013 37.7871C24.9875 37.7871 24.5729 37.4417 24.5729 36.6817V33.4114C24.5729 32.6515 24.9875 32.306 25.7013 32.306C26.4152 32.306 26.8528 32.6515 26.8528 33.4114V36.6817Z" fill="#5D55EA"/>
</svg>
