<svg width="50" height="50" viewBox="0 0 50 50" fill="none" xmlns="http://www.w3.org/2000/svg">
<path d="M0 9.375V12.5H29.6875V35.9375H20.0684C19.3726 33.252 16.9556 31.25 14.0625 31.25C11.1694 31.25 8.75244 33.252 8.05664 35.9375H6.25V28.125H3.125V39.0625H8.05664C8.75244 41.748 11.1694 43.75 14.0625 43.75C16.9556 43.75 19.3726 41.748 20.0684 39.0625H33.0566C33.7524 41.748 36.1694 43.75 39.0625 43.75C41.9556 43.75 44.3726 41.748 45.0684 39.0625H50V26.3184L49.9023 26.0742L46.7773 16.6992L46.4355 15.625H32.8125V9.375H0ZM1.5625 15.625V18.75H15.625V15.625H1.5625ZM32.8125 18.75H44.1895L46.875 26.7578V35.9375H45.0684C44.3726 33.252 41.9556 31.25 39.0625 31.25C36.1694 31.25 33.7524 33.252 33.0566 35.9375H32.8125V18.75ZM3.125 21.875V25H12.5V21.875H3.125ZM14.0625 34.375C15.8081 34.375 17.1875 35.7544 17.1875 37.5C17.1875 39.2456 15.8081 40.625 14.0625 40.625C12.3169 40.625 10.9375 39.2456 10.9375 37.5C10.9375 35.7544 12.3169 34.375 14.0625 34.375ZM39.0625 34.375C40.8081 34.375 42.1875 35.7544 42.1875 37.5C42.1875 39.2456 40.8081 40.625 39.0625 40.625C37.3169 40.625 35.9375 39.2456 35.9375 37.5C35.9375 35.7544 37.3169 34.375 39.0625 34.375Z" fill="#5D55EA"/>
</svg>
