<svg width="50" height="50" viewBox="0 0 50 50" fill="none" xmlns="http://www.w3.org/2000/svg">
<g clip-path="url(#clip0_221_7790)">
<path d="M43.6185 6.61752C36.5204 6.07933 30.6927 4.00335 25.8026 0.271216C25.3285 -0.0904055 24.6713 -0.0904055 24.1976 0.271216C19.3075 4.00335 13.4798 6.07933 6.38155 6.61752C5.6916 6.66976 5.15869 7.24477 5.15869 7.93647V27.1164C5.15869 31.4745 8.42022 36.6388 14.8527 42.4659C19.5081 46.6832 24.0884 49.6629 24.2811 49.7876C24.4997 49.9293 24.7498 50 25 50C25.2502 50 25.5001 49.9292 25.7191 49.7876C25.9117 49.6629 30.4919 46.6832 35.1474 42.4659C41.5799 36.6388 44.8414 31.4745 44.8414 27.1164V7.93647C44.8413 7.24486 44.3084 6.66986 43.6185 6.61752ZM42.1958 27.1164C42.1958 34.0437 30.4013 43.4467 24.9999 47.091C19.5986 43.4467 7.80411 34.0437 7.80411 27.1164V9.14721C14.5082 8.46703 20.1537 6.43802 25 2.96751C29.8463 6.43793 35.492 8.46703 42.1959 9.14711L42.1958 27.1164Z" fill="#5D55EA"/>
<path d="M14.7041 30.6004C14.2877 30.0001 13.4634 29.8511 12.8631 30.2675C12.2628 30.6839 12.1138 31.5082 12.5302 32.1085C13.8928 34.0726 15.8367 36.2086 18.3082 38.4574C18.5618 38.6881 18.8802 38.8018 19.198 38.8018C19.5576 38.8018 19.9157 38.656 20.1767 38.3693C20.6684 37.829 20.6289 36.9924 20.0885 36.5007C17.7645 34.3859 15.9528 32.4008 14.7041 30.6004Z" fill="#5D55EA"/>
<path d="M24.3139 6.58997C20.4892 8.91019 16.3111 10.4507 11.5407 11.2995C10.9095 11.412 10.4497 11.9608 10.4497 12.6019V25.0001C10.4497 25.7306 11.0419 26.3228 11.7725 26.3228H23.6773V42.2131C23.6773 42.9437 24.2708 43.5372 25.0014 43.5372C25.2845 43.5372 25.56 43.4463 25.7876 43.2782C27.8898 41.7244 29.8433 40.132 31.5944 38.5453C36.6504 33.9644 39.5504 29.7989 39.5504 27.1166V25.0002C39.5504 24.2696 38.9581 23.6774 38.2276 23.6774H26.3228V7.72093C26.3228 7.24329 26.0653 6.80266 25.649 6.56829C25.2326 6.33401 24.7225 6.34221 24.3139 6.58997ZM23.6773 23.6773H13.0952V13.6967C16.9397 12.9179 20.4284 11.6959 23.6773 9.98802V23.6773ZM26.3228 26.3228H36.9048V27.1165C36.9048 28.2485 35.4124 31.5165 29.8182 36.5848C28.731 37.5698 27.5612 38.5583 26.3228 39.5389V26.3228Z" fill="#5D55EA"/>
<path d="M30.7952 11.9724C32.7266 12.685 34.777 13.2634 36.9048 13.6962V18.9154C36.9048 19.6459 37.4971 20.2381 38.2276 20.2381C38.958 20.2381 39.5503 19.6459 39.5503 18.9154V12.6019C39.5503 11.9608 39.0906 11.4119 38.4593 11.2996C36.0944 10.8787 33.824 10.27 31.7111 9.49036C31.0253 9.23743 30.2649 9.58811 30.0121 10.2735C29.7591 10.9589 30.1098 11.7195 30.7952 11.9724Z" fill="#5D55EA"/>
</g>
<defs>
<clipPath id="clip0_221_7790">
<rect width="50" height="50" fill="white"/>
</clipPath>
</defs>
</svg>
