<svg width="50" height="50" viewBox="0 0 50 50" fill="none" xmlns="http://www.w3.org/2000/svg">
<g clip-path="url(#clip0_221_7825)">
<path d="M49.9322 31.9573L42.5258 9.15262H44.388C45.1528 9.15262 45.7727 8.53273 45.7727 7.76791C45.7727 7.00308 45.1528 6.38319 44.388 6.38319H26.3847V3.45991C26.3847 2.69509 25.7648 2.0752 25 2.0752C24.2351 2.0752 23.6153 2.69509 23.6153 3.45991V6.38319H5.61198C4.84716 6.38319 4.22727 7.00308 4.22727 7.76791C4.22727 8.53273 4.84716 9.15262 5.61198 9.15262H7.47411L0.0677438 31.9573C-0.0873441 32.4349 0.0282025 32.9589 0.369765 33.3269L2.84148 35.9907C4.52375 37.8036 6.90684 38.8433 9.37994 38.8433C11.853 38.8433 14.2361 37.8036 15.9183 35.9907L18.39 33.3269C18.7315 32.9589 18.8471 32.4349 18.692 31.9573L11.2856 9.15262H23.6153V41.1549H17.9995C15.0302 41.1549 12.6145 43.5706 12.6145 46.5399C12.6145 47.3047 13.2344 47.9246 13.9992 47.9246H36.0007C36.7656 47.9246 37.3855 47.3047 37.3855 46.5399C37.3855 43.5706 34.9698 41.1549 32.0005 41.1549H26.3847V9.15262H38.7143L31.308 31.9573C31.1529 32.4349 31.2684 32.9589 31.61 33.3269L34.0817 35.9907C35.7638 37.8036 38.1469 38.8433 40.62 38.8433C43.0929 38.8433 45.4762 37.8036 47.1585 35.9907L49.6302 33.3269C49.9717 32.9589 50.0873 32.4349 49.9322 31.9573ZM13.8883 34.1068C12.7113 35.3752 11.1102 36.0738 9.37994 36.0738C7.64966 36.0738 6.04847 35.3752 4.87147 34.1068L4.48729 33.6928H14.2724L13.8883 34.1068ZM15.4444 30.9234H3.31536L9.37994 12.2507L15.4444 30.9234ZM32.0005 43.9243C32.9345 43.9243 33.7558 44.4165 34.2186 45.1552H15.7813C16.2441 44.4165 17.0654 43.9243 17.9995 43.9243H32.0005ZM45.1283 34.1068C43.9515 35.3752 42.3503 36.0738 40.62 36.0738C38.8897 36.0738 37.2887 35.3752 36.1117 34.1068L35.7275 33.6928H45.5125L45.1283 34.1068ZM34.5556 30.9234L40.62 12.2507L46.6844 30.9234H34.5556Z" fill="#5D55EA"/>
</g>
<defs>
<clipPath id="clip0_221_7825">
<rect width="50" height="50" fill="white"/>
</clipPath>
</defs>
</svg>
