<svg width="26" height="20" viewBox="0 0 26 20" fill="none" xmlns="http://www.w3.org/2000/svg">
<path d="M25.4645 3.74833C25.1646 2.63466 24.2866 1.75657 23.1729 1.45674C21.1383 0.899902 12.9999 0.899902 12.9999 0.899902C12.9999 0.899902 4.86159 0.899902 2.82701 1.43532C1.73475 1.73515 0.835252 2.63466 0.535418 3.74833C0 5.78291 0 10.002 0 10.002C0 10.002 0 14.2425 0.535418 16.2557C0.835252 17.3694 1.71334 18.2474 2.82701 18.5473C4.88301 19.1041 12.9999 19.1041 12.9999 19.1041C12.9999 19.1041 21.1383 19.1041 23.1729 18.5687C24.2866 18.2689 25.1646 17.3908 25.4645 16.2771C25.9999 14.2425 25.9999 10.0234 25.9999 10.0234C25.9999 10.0234 26.0213 5.78291 25.4645 3.74833Z" fill="white"/>
<path d="M10.4086 13.8997L17.1762 10.0018L10.4086 6.104V13.8997Z" fill="#25225E"/>
</svg>
